<?xml version="1.0" encoding="UTF-8"?>
<!DOCTYPE svg PUBLIC "-//W3C//DTD SVG 1.1//EN" "http://www.w3.org/Graphics/SVG/1.1/DTD/svg11.dtd">
<!-- Creator: CorelDRAW X8 -->
<svg xmlns="http://www.w3.org/2000/svg" xml:space="preserve" width="210mm" height="297mm" version="1.1" style="shape-rendering:geometricPrecision; text-rendering:geometricPrecision; image-rendering:optimizeQuality; fill-rule:evenodd; clip-rule:evenodd"
viewBox="0 0 21000 29700"
 xmlns:xlink="http://www.w3.org/1999/xlink"
 xmlns:xodm="http://www.corel.com/coreldraw/odm/2003">
 <defs>
  <style type="text/css">
   <![CDATA[
    .fil0 {fill:#1F1D1A}
    .fil1 {fill:#E7A748}
    .fil2 {fill:#FEFEFE;fill-rule:nonzero}
   ]]>
  </style>
 </defs>
 <g id="Слой_x0020_1">
  <metadata id="CorelCorpID_0Corel-Layer"/>
  <g id="_1887576634416">
   <polygon class="fil0" points="1372,306 19775,306 19697,29700 1372,29700 "/>
   <path class="fil1" d="M7237 316c-396,1014 -803,2035 -1234,3043 -434,1018 -892,2031 -1368,3040 -480,1017 -982,2030 -1503,3039 -526,1017 -1077,2027 -1635,3039 654,0 1312,0 1969,0 315,-1012 628,-2026 942,-3038 314,-1014 628,-2028 943,-3040 315,-1014 631,-2026 945,-3040 313,-1012 629,-2029 941,-3043z"/>
   <path class="fil1" d="M13679 316c418,1014 844,2033 1295,3043 455,1016 934,2031 1431,3040 500,1017 1022,2032 1562,3040 545,1018 1118,2026 1701,3038 -659,0 -1317,0 -1975,0 -336,-1012 -669,-2024 -1003,-3038 -334,-1012 -667,-2028 -1001,-3040 -335,-1014 -671,-2027 -1005,-3040 -335,-1013 -669,-2029 -1005,-3043z"/>
   <path class="fil1" d="M12685 12477c-71,-678 -142,-1356 -213,-2035 -71,-678 -143,-1358 -212,-2038 -1076,0 -2148,0 -3222,0 -49,680 -97,1360 -147,2038 -50,679 -100,1357 -149,2035 1313,0 2627,0 3943,0z"/>
   <path class="fil1" d="M12167 7526c-64,-615 -130,-1233 -195,-1848 -64,-616 -128,-1233 -192,-1850 402,0 803,0 1205,0 -498,-585 -972,-1160 -1389,-1755 -402,-575 -752,-1170 -1077,-1757 -304,587 -636,1184 -1020,1757 -400,598 -854,1170 -1332,1755 402,0 804,0 1205,0 -45,617 -92,1234 -136,1850 -45,615 -89,1233 -135,1848 1022,0 2043,0 3066,0z"/>
   <path class="fil2" d="M3260 16819c0,-96 -28,-171 -84,-225 -56,-54 -134,-82 -232,-82l-583 0 0 618 583 0c98,0 176,-28 232,-84 56,-56 84,-132 84,-227zm-50 -1368c0,-89 -27,-159 -81,-210 -54,-51 -131,-77 -230,-77l-538 0 0 573 538 0c99,0 176,-25 230,-76 54,-51 81,-121 81,-210zm914 1422c0,158 -26,300 -77,427 -51,127 -124,235 -219,324 -96,88 -211,158 -346,207 -135,49 -287,74 -454,74l-1531 0 0 -3516 1456 0c172,0 326,23 465,69 138,46 256,112 353,198 97,85 172,189 224,311 53,122 79,258 79,410 0,158 -29,294 -88,407 -60,114 -158,220 -297,319 158,98 270,207 336,325 66,119 99,267 99,445zm597 1032l0 -3516 2391 0 0 770 -1526 0 0 588 1303 0 0 770 -1303 0 0 618 1526 0 0 770 -2391 0zm4963 0l-810 -1442 -296 341 0 1101 -854 0 0 -3516 854 0 0 1244 1017 -1244 1057 0 -1200 1422 1240 2094 -1008 0zm2884 -2746l0 2746 -864 0 0 -2746 -864 0 0 -770 2593 0 0 770 -865 0zm3067 840c0,-168 -10,-314 -30,-437 -19,-124 -52,-217 -98,-279 -83,-102 -198,-153 -346,-153 -148,0 -263,51 -346,153 -46,62 -79,155 -98,279 -20,123 -30,269 -30,437l0 242c0,224 10,392 30,506 19,114 52,200 98,259 86,106 201,158 346,158 69,0 134,-14 195,-42 61,-28 111,-66 151,-116 46,-59 79,-145 98,-259 20,-114 30,-282 30,-506l0 -242zm864 148c0,128 -1,254 -2,378 -2,123 -13,243 -35,360 -21,117 -57,231 -106,341 -49,110 -120,215 -212,314 -251,263 -576,395 -978,395 -405,0 -734,-132 -988,-395 -89,-93 -158,-191 -207,-297 -50,-105 -85,-214 -106,-326 -22,-112 -34,-224 -37,-338 -4,-113 -5,-224 -5,-333l0 -222c0,-172 5,-321 17,-447 12,-127 30,-240 57,-339 26,-98 62,-186 108,-261 47,-76 104,-150 173,-223 250,-263 576,-395 978,-395 405,0 734,132 988,395 125,129 215,277 271,445 56,168 84,380 84,637l0 311zm2326 -627c0,-102 -35,-187 -106,-254 -71,-68 -160,-102 -269,-102l-489 0 0 711 489 0c109,0 198,-33 269,-101 71,-67 106,-152 106,-254zm864 0c0,165 -29,316 -88,454 -60,138 -143,258 -250,358 -107,101 -234,179 -380,235 -147,56 -307,84 -482,84l-528 0 0 1254 -864 0 0 -3516 1392 0c175,0 335,28 482,84 146,56 273,134 380,235 107,100 190,219 250,358 59,138 88,289 88,454z"/>
   <polygon class="fil2" points="6317,26365 6317,23039 5332,24755 4240,24755 3255,23039 3255,26365 1548,26365 1548,19421 3226,19421 4786,22483 6347,19421 8024,19421 8024,26365 "/>
   <polygon class="fil2" points="9824,24238 9824,22736 13023,22736 13023,24238 "/>
   <path class="fil2" d="M17576 24276c0,-206 -69,-381 -208,-522 -139,-142 -311,-213 -517,-213 -200,0 -371,71 -513,213 -142,141 -213,312 -213,512 0,200 71,371 213,513 142,142 313,213 513,213 193,0 362,-71 507,-213 145,-142 218,-310 218,-503zm-68 -2757c0,-187 -63,-345 -188,-474 -126,-128 -283,-193 -469,-193 -187,0 -344,63 -470,189 -125,125 -188,282 -188,469 0,187 63,343 188,469 126,125 283,188 470,188 180,0 335,-63 464,-188 129,-126 193,-279 193,-460zm880 1306c290,232 492,461 605,687 113,225 169,500 169,822 0,316 -55,603 -164,861 -110,258 -265,477 -465,657 -200,181 -443,321 -730,421 -287,100 -604,150 -952,150 -349,0 -666,-50 -953,-150 -287,-100 -531,-240 -730,-421 -200,-180 -355,-398 -465,-653 -109,-254 -164,-540 -164,-855 0,-420 109,-778 329,-1074 58,-77 116,-147 174,-208 58,-61 148,-140 271,-237 -258,-226 -440,-443 -547,-653 -106,-209 -159,-459 -159,-749 0,-291 56,-556 169,-798 113,-242 269,-453 469,-634 200,-180 437,-321 711,-421 274,-100 572,-149 895,-149 322,0 620,49 894,149 274,100 511,241 711,421 200,181 356,392 469,634 113,242 169,507 169,798 0,290 -53,540 -159,749 -107,210 -289,427 -547,653z"/>
   <path class="fil1" d="M19486 27444c-16,106 -54,186 -117,242 -62,55 -149,83 -261,83 -112,0 -199,-28 -260,-83 -62,-56 -100,-136 -116,-242l170 0c11,45 33,82 65,110 32,28 79,42 143,42 64,0 111,-14 143,-42 31,-28 51,-65 60,-110l173 0zm-124 1676l0 -815 -506 815 -238 0 0 -1183 238 0 0 803 506 -803 238 0 0 1183 -238 0zm-1361 0l0 -815 -506 815 -238 0 0 -1183 238 0 0 803 506 -803 238 0 0 1183 -238 0zm-1360 0l0 -504 -472 0 0 504 -238 0 0 -1183 238 0 0 471 472 0 0 -471 238 0 0 1183 -238 0zm-1310 0l0 -107c-25,25 -49,45 -71,61 -23,15 -47,27 -71,36 -25,8 -52,14 -80,17 -28,3 -59,5 -93,5 -132,0 -234,-31 -305,-92 -71,-62 -106,-150 -106,-265 0,-108 36,-192 109,-252 72,-61 171,-91 297,-91l318 0 0 -87c0,-78 -21,-134 -63,-168 -42,-34 -110,-51 -204,-51 -65,0 -118,10 -158,30 -17,8 -33,18 -48,32 -15,13 -31,30 -48,52l-156 -147c32,-36 59,-62 79,-79 20,-17 45,-32 75,-45 63,-31 151,-46 263,-46 330,0 495,135 495,406l0 791 -233 0zm-2 -520l-280 0c-142,0 -213,56 -213,168 0,57 19,100 56,127 37,27 97,41 177,41 94,0 160,-19 200,-56 40,-38 60,-100 60,-187l0 -93zm-1252 520l0 -976 -471 0 0 976 -238 0 0 -1183 948 0 0 1183 -239 0zm-1328 0l0 -758 -273 541 -149 0 -278 -541 0 758 -238 0 0 -1183 236 0 354 705 353 -705 233 0 0 1183 -238 0zm-1263 -597c0,59 -2,112 -7,158 -4,47 -12,89 -23,126 -11,38 -25,72 -43,102 -18,30 -40,59 -64,85 -91,93 -209,140 -355,140 -145,0 -262,-47 -353,-140 -50,-53 -85,-115 -107,-185 -22,-71 -33,-165 -33,-282 0,-115 11,-208 33,-279 22,-70 57,-132 107,-185 91,-94 208,-140 353,-140 146,0 264,46 355,140 49,51 85,112 106,183 21,71 31,163 31,277zm-238 9c0,-75 -4,-138 -14,-190 -9,-52 -29,-96 -60,-130 -22,-23 -48,-42 -77,-56 -29,-14 -64,-21 -104,-21 -41,0 -75,7 -105,21 -29,14 -55,34 -77,58 -29,36 -48,81 -58,136 -9,54 -14,117 -14,187 0,79 7,143 19,191 13,48 32,88 58,119 42,50 101,75 177,75 40,0 75,-7 105,-21 30,-14 56,-34 78,-59 28,-34 47,-77 57,-128 10,-51 15,-112 15,-182zm-1216 588l-338 -525 -171 194 0 331 -238 0 0 -1183 238 0 0 562 472 -562 291 0 -431 485 469 698 -292 0zm-1909 0l0 -107c-25,25 -49,45 -72,61 -22,15 -46,27 -71,36 -25,8 -51,14 -79,17 -28,3 -59,5 -94,5 -132,0 -233,-31 -304,-92 -71,-62 -106,-150 -106,-265 0,-108 36,-192 108,-252 72,-61 172,-91 298,-91l317 0 0 -87c0,-78 -21,-134 -63,-168 -42,-34 -110,-51 -203,-51 -65,0 -118,10 -159,30 -17,8 -33,18 -47,32 -15,13 -31,30 -48,52l-157 -147c33,-36 59,-62 80,-79 20,-17 45,-32 74,-45 64,-31 152,-46 264,-46 330,0 495,135 495,406l0 791 -233 0zm-3 -520l-280 0c-142,0 -212,56 -212,168 0,57 18,100 56,127 37,27 96,41 177,41 93,0 160,-19 200,-56 39,-38 59,-100 59,-187l0 -93zm-1251 520l0 -975 -472 0 0 975 -238 0 0 -1183 948 0 0 1183 -238 0zm-1326 0l0 -975 -471 0 0 975 -238 0 0 -1183 947 0 0 1183 -238 0zm-1438 236c-29,81 -70,140 -122,177 -53,38 -121,56 -207,56l-96 0 0 -214 61 0c48,0 84,-8 109,-25 24,-16 44,-49 61,-99l66 -187 -416 -1127 255 0 282 835 276 -835 254 0 -523 1419zm-695 -824c0,129 -11,232 -31,309 -20,77 -53,139 -100,186 -72,71 -170,107 -294,107 -69,0 -125,-10 -170,-30 -44,-20 -89,-55 -134,-105l0 600 -238 0 0 -1662 234 0 0 124c23,-25 46,-46 67,-64 22,-17 45,-31 68,-42 23,-10 49,-19 76,-24 27,-5 59,-8 94,-8 106,0 194,25 263,76 69,50 116,127 139,229 9,43 16,86 20,131 4,45 6,103 6,173zm-239 -5c0,-141 -19,-242 -56,-302 -38,-60 -102,-90 -190,-90 -96,0 -162,38 -200,115 -15,31 -26,69 -33,115 -7,46 -11,103 -11,172 0,137 19,235 57,295 38,60 101,90 190,90 88,0 150,-31 188,-91 37,-61 55,-162 55,-304zm-1475 -382l0 975 -238 0 0 -1183 768 0 0 208 -530 0z"/>
  </g>
 </g>
 <g id="Слой_x0020_1_0">
  <metadata id="CorelCorpID_1Corel-Layer"/>
 </g>
</svg>
