<?xml version="1.0" encoding="UTF-8"?>
<!DOCTYPE svg PUBLIC "-//W3C//DTD SVG 1.1//EN" "http://www.w3.org/Graphics/SVG/1.1/DTD/svg11.dtd">
<!-- Creator: CorelDRAW X8 -->
<svg xmlns="http://www.w3.org/2000/svg" xml:space="preserve" width="35mm" height="56mm" version="1.1" style="shape-rendering:geometricPrecision; text-rendering:geometricPrecision; image-rendering:optimizeQuality; fill-rule:evenodd; clip-rule:evenodd"
viewBox="0 0 3500 5600"
 xmlns:xlink="http://www.w3.org/1999/xlink"
 xmlns:xodm="http://www.corel.com/coreldraw/odm/2003">
 <defs>
  <style type="text/css">
   <![CDATA[
    .fil0 {fill:#1F1D1A}
    .fil1 {fill:#E7A748}
    .fil2 {fill:#FEFEFE;fill-rule:nonzero}
   ]]>
  </style>
 </defs>
 <g id="Слой_x0020_1">
  <metadata id="CorelCorpID_0Corel-Layer"/>
  <polygon class="fil0" points="-32,-16 3554,-16 3539,5612 -32,5612 "/>
  <g id="_2078233582592">
   <path class="fil1" d="M1111 2c-75,194 -153,390 -236,583 -83,194 -171,388 -262,581 -92,195 -188,389 -287,582 -101,195 -207,388 -313,582 125,0 251,0 377,0 60,-194 120,-388 180,-582 60,-194 120,-388 180,-582 61,-194 121,-387 181,-581 60,-194 121,-389 180,-583z"/>
   <path class="fil1" d="M2344 2c80,194 162,389 248,583 87,194 179,388 274,581 96,195 196,389 299,582 105,195 214,388 326,582 -126,0 -252,0 -378,0 -65,-194 -128,-388 -192,-582 -64,-193 -128,-388 -192,-582 -64,-194 -128,-388 -192,-581 -64,-194 -128,-389 -193,-583z"/>
   <path class="fil1" d="M2154 2330c-13,-130 -27,-260 -41,-390 -13,-129 -27,-260 -40,-390 -206,0 -411,0 -617,0 -9,130 -19,261 -28,390 -10,130 -19,260 -29,390 252,0 503,0 755,0z"/>
   <path class="fil1" d="M2055 1382c-12,-118 -25,-236 -37,-354 -13,-117 -25,-236 -37,-354 77,0 154,0 230,0 -95,-112 -185,-222 -265,-336 -77,-110 -144,-223 -206,-336 -59,113 -122,227 -196,336 -76,115 -163,224 -255,336 77,0 154,0 231,0 -9,118 -18,237 -26,354 -9,118 -17,236 -26,354 196,0 391,0 587,0z"/>
   <path class="fil2" d="M350 3161c0,-18 -5,-33 -16,-43 -11,-11 -26,-16 -44,-16l-112 0 0 118 112 0c18,0 33,-5 44,-16 11,-10 16,-25 16,-43zm-9 -262c0,-17 -6,-30 -16,-40 -10,-10 -25,-15 -44,-15l-103 0 0 110 103 0c19,0 34,-5 44,-15 10,-10 16,-23 16,-40zm174 272c0,31 -4,58 -14,82 -10,24 -24,45 -42,62 -19,17 -41,30 -66,40 -26,9 -55,14 -87,14l-293 0 0 -673 278 0c33,0 63,4 89,13 27,9 49,21 68,38 18,16 33,36 43,59 10,24 15,50 15,79 0,30 -6,56 -17,78 -11,22 -30,42 -57,61 31,19 52,40 65,62 12,23 18,51 18,85zm115 198l0 -673 457 0 0 147 -292 0 0 113 250 0 0 147 -250 0 0 118 292 0 0 148 -457 0zm950 0l-155 -276 -57 65 0 211 -163 0 0 -673 163 0 0 238 195 -238 202 0 -230 272 238 401 -193 0zm552 -526l0 526 -166 0 0 -526 -165 0 0 -147 496 0 0 147 -165 0zm587 161c0,-32 -2,-60 -6,-84 -4,-23 -10,-41 -19,-53 -16,-20 -38,-29 -66,-29 -28,0 -50,9 -66,29 -9,12 -15,30 -19,53 -4,24 -6,52 -6,84l0 46c0,43 2,75 6,97 4,22 10,38 19,50 16,20 38,30 66,30 13,0 26,-3 37,-8 12,-5 22,-13 29,-22 9,-12 15,-28 19,-50 4,-22 6,-54 6,-97l0 -46zm165 28c0,25 0,49 0,73 -1,23 -3,46 -7,69 -4,22 -11,44 -20,65 -10,21 -23,41 -41,60 -48,50 -110,76 -187,76 -78,0 -141,-26 -189,-76 -17,-18 -30,-37 -40,-57 -9,-20 -16,-41 -20,-62 -4,-22 -7,-43 -7,-65 -1,-22 -1,-43 -1,-64l0 -42c0,-33 1,-62 3,-86 2,-24 6,-46 11,-65 5,-18 12,-35 21,-50 9,-14 20,-28 33,-42 48,-51 110,-76 187,-76 78,0 141,25 189,76 24,24 41,53 52,85 11,32 16,73 16,122l0 59zm445 -120c0,-19 -6,-35 -20,-48 -13,-13 -31,-20 -51,-20l-94 0 0 136 94 0c20,0 38,-6 51,-19 14,-13 20,-29 20,-49zm166 0c0,32 -6,61 -17,87 -12,27 -27,50 -48,69 -20,19 -45,34 -73,45 -28,10 -58,16 -92,16l-101 0 0 240 -165 0 0 -673 266 0c34,0 64,5 92,16 28,11 53,26 73,45 21,19 36,42 48,68 11,27 17,56 17,87z"/>
   <polygon class="fil2" points="935,4988 935,4351 747,4680 538,4680 349,4351 349,4988 22,4988 22,3659 344,3659 642,4245 941,3659 1262,3659 1262,4988 "/>
   <polygon class="fil2" points="1606,4581 1606,4294 2219,4294 2219,4581 "/>
   <path class="fil2" d="M3090 4588c0,-39 -13,-73 -40,-100 -26,-27 -59,-40 -99,-40 -38,0 -71,13 -98,40 -27,27 -40,60 -40,98 0,39 13,71 40,99 27,27 60,40 98,40 37,0 70,-13 98,-40 27,-28 41,-60 41,-97zm-13 -527c0,-36 -12,-66 -36,-91 -24,-25 -54,-37 -90,-37 -35,0 -65,12 -89,36 -24,24 -36,54 -36,90 0,36 12,66 36,90 24,24 54,36 89,36 35,0 65,-12 89,-36 25,-24 37,-54 37,-88zm169 250c55,44 94,88 115,131 22,43 33,96 33,157 0,61 -11,116 -32,165 -21,50 -50,91 -88,126 -39,35 -85,61 -140,81 -55,19 -116,28 -183,28 -66,0 -127,-9 -182,-28 -55,-20 -101,-46 -140,-81 -38,-35 -68,-76 -89,-125 -21,-49 -31,-103 -31,-164 0,-80 21,-149 63,-205 11,-15 22,-28 33,-40 11,-12 29,-27 52,-45 -49,-44 -84,-85 -105,-125 -20,-40 -30,-88 -30,-144 0,-55 11,-106 32,-153 22,-46 52,-86 90,-121 38,-34 84,-61 136,-80 53,-20 110,-29 171,-29 62,0 119,9 172,29 52,19 97,46 136,80 38,35 68,75 90,121 21,47 32,98 32,153 0,56 -10,104 -31,144 -20,40 -55,81 -104,125z"/>
   <path class="fil1" d="M3456 5195c-3,20 -11,35 -22,46 -12,11 -29,16 -50,16 -22,0 -39,-5 -50,-16 -12,-11 -19,-26 -22,-46l32 0c2,8 6,15 12,21 7,5 16,8 28,8 12,0 21,-3 27,-8 6,-6 10,-13 12,-21l33 0zm-24 321l0 -156 -97 156 -45 0 0 -227 45 0 0 154 97 -154 46 0 0 227 -46 0zm-260 0l0 -156 -97 156 -46 0 0 -227 46 0 0 154 97 -154 45 0 0 227 -45 0zm-261 0l0 -97 -90 0 0 97 -46 0 0 -227 46 0 0 90 90 0 0 -90 46 0 0 227 -46 0zm-250 0l0 -21c-5,5 -10,9 -14,12 -4,3 -9,5 -14,7 -4,1 -9,2 -15,3 -5,0 -11,1 -18,1 -25,0 -44,-6 -58,-18 -14,-12 -20,-29 -20,-51 0,-20 7,-36 20,-48 14,-11 33,-17 57,-17l61 0 0 -17c0,-15 -4,-25 -12,-32 -8,-7 -21,-10 -39,-10 -12,0 -22,2 -30,6 -3,1 -7,3 -9,6 -3,3 -6,6 -9,10l-30 -28c6,-7 11,-12 15,-15 4,-4 8,-6 14,-9 12,-6 29,-9 51,-9 63,0 94,26 94,78l0 152 -44 0zm-1 -100l-53 0c-28,0 -41,11 -41,32 0,11 3,19 11,24 7,6 18,8 34,8 17,0 30,-3 38,-11 7,-7 11,-19 11,-35l0 -18zm-239 100l0 -187 -91 0 0 187 -45 0 0 -227 181 0 0 227 -45 0zm-255 0l0 -146 -52 104 -28 0 -54 -104 0 146 -45 0 0 -227 45 0 68 135 67 -135 45 0 0 227 -46 0zm-241 -115c0,11 -1,22 -2,31 -1,8 -2,16 -4,24 -2,7 -5,13 -8,19 -4,6 -8,11 -13,16 -17,18 -40,27 -68,27 -27,0 -50,-9 -67,-27 -10,-10 -16,-22 -21,-35 -4,-14 -6,-32 -6,-54 0,-22 2,-40 6,-53 5,-14 11,-26 21,-36 17,-18 40,-27 67,-27 28,0 51,9 68,27 10,10 17,22 21,35 4,14 6,31 6,53zm-46 2c0,-14 -1,-27 -3,-36 -1,-10 -5,-19 -11,-25 -4,-5 -9,-8 -15,-11 -5,-3 -12,-4 -20,-4 -7,0 -14,1 -20,4 -5,3 -10,6 -15,11 -5,7 -9,16 -11,26 -1,11 -2,22 -2,36 0,15 1,27 3,36 3,10 6,17 11,23 8,10 20,15 34,15 8,0 15,-2 20,-4 6,-3 11,-7 15,-12 6,-6 9,-14 11,-24 2,-10 3,-22 3,-35zm-233 113l-64 -101 -33 37 0 64 -46 0 0 -227 46 0 0 108 90 -108 56 0 -83 93 90 134 -56 0zm-365 0l0 -21c-5,5 -9,9 -14,12 -4,3 -9,5 -13,7 -5,1 -10,2 -16,3 -5,0 -11,1 -17,1 -26,0 -45,-6 -59,-18 -13,-12 -20,-29 -20,-51 0,-20 7,-36 21,-48 13,-11 32,-17 57,-17l60 0 0 -17c0,-15 -4,-25 -12,-32 -8,-7 -21,-10 -39,-10 -12,0 -22,2 -30,6 -3,1 -6,3 -9,6 -3,3 -6,6 -9,10l-30 -28c6,-7 11,-12 15,-15 4,-4 9,-6 14,-9 13,-6 29,-9 51,-9 63,0 95,26 95,78l0 152 -45 0zm-1 -100l-53 0c-27,0 -41,11 -41,32 0,11 4,19 11,24 7,6 18,8 34,8 18,0 30,-3 38,-11 8,-7 11,-19 11,-35l0 -18zm-239 100l0 -187 -90 0 0 187 -46 0 0 -227 181 0 0 227 -45 0zm-254 0l0 -187 -90 0 0 187 -46 0 0 -227 182 0 0 227 -46 0zm-275 45c-6,15 -14,26 -24,34 -10,7 -23,10 -39,10l-18 0 0 -41 11 0c9,0 16,-1 21,-4 5,-4 9,-10 12,-19l12 -36 -79 -216 48 0 55 160 52 -160 49 0 -100 272zm-133 -158c0,25 -2,44 -6,59 -4,15 -10,27 -19,36 -14,13 -33,20 -57,20 -13,0 -24,-2 -32,-6 -8,-3 -17,-10 -26,-20l0 115 -45 0 0 -318 44 0 0 24c5,-5 9,-9 13,-12 5,-4 9,-6 13,-8 5,-3 10,-4 15,-5 5,-1 11,-2 18,-2 20,0 37,5 50,15 13,10 22,24 27,44 2,8 3,16 4,25 0,9 1,20 1,33zm-46 -1c0,-27 -4,-46 -11,-58 -7,-11 -19,-17 -36,-17 -18,0 -31,7 -38,22 -3,6 -5,13 -7,22 -1,9 -2,20 -2,33 0,26 4,45 11,56 7,12 20,18 36,18 17,0 29,-6 36,-18 8,-11 11,-31 11,-58zm-282 -73l0 187 -46 0 0 -227 147 0 0 40 -101 0z"/>
  </g>
 </g>
</svg>
