<?xml version="1.0" encoding="UTF-8"?>
<!DOCTYPE svg PUBLIC "-//W3C//DTD SVG 1.1//EN" "http://www.w3.org/Graphics/SVG/1.1/DTD/svg11.dtd">
<!-- Creator: CorelDRAW 2019 (64-Bit) -->
<svg xmlns="http://www.w3.org/2000/svg" xml:space="preserve" width="63.165mm" height="106.274mm" version="1.1" style="shape-rendering:geometricPrecision; text-rendering:geometricPrecision; image-rendering:optimizeQuality; fill-rule:evenodd; clip-rule:evenodd"
viewBox="0 0 6302.27 10603.44"
 xmlns:xlink="http://www.w3.org/1999/xlink"
 xmlns:xodm="http://www.corel.com/coreldraw/odm/2003">
 <defs>
  <style type="text/css">
   <![CDATA[
    .fil1 {fill:#E7A748}
    .fil0 {fill:#1F1D1A}
    .fil2 {fill:#FEFEFE;fill-rule:nonzero}
   ]]>
  </style>
 </defs>
 <g id="Слой_x0020_1">
  <metadata id="CorelCorpID_0Corel-Layer"/>
  <g id="_2681463328">
   <polygon class="fil0" points="-0,0 6302.27,0 6287.29,10603.44 -0,10603.44 "/>
   <g>
    <path class="fil1" d="M2513.89 1876.26c-75.63,193.68 -153.43,388.55 -235.63,581.07 -83,194.43 -170.43,387.96 -261.32,580.61 -91.63,194.26 -187.48,387.75 -286.99,580.39 -100.38,194.29 -205.79,387.14 -312.33,580.36 124.95,0 250.55,0 376.19,0 60.04,-193.22 119.78,-386.84 179.76,-580.13 60.08,-193.63 119.92,-387.24 180.1,-580.62 60.24,-193.53 120.53,-386.91 180.47,-580.61 59.78,-193.22 120.08,-387.39 179.74,-581.07z"/>
    <path class="fil1" d="M3744.16 1876.26c79.82,193.68 161.15,388.29 247.43,581.07 86.88,194.15 178.2,387.86 273.11,580.61 95.61,194.18 195.36,388.11 298.45,580.62 104.09,194.4 213.43,386.91 324.83,580.13 -125.97,0 -251.6,0 -377.23,0 -64.2,-193.22 -127.66,-386.52 -191.56,-580.13 -63.82,-193.29 -127.43,-387.32 -191.21,-580.62 -63.92,-193.62 -128.07,-387.14 -191.93,-580.61 -63.86,-193.45 -127.71,-387.39 -191.9,-581.07z"/>
    <path class="fil1" d="M3554.32 4198.69c-13.53,-129.35 -27.06,-258.95 -40.61,-388.54 -13.53,-129.58 -27.42,-259.4 -40.59,-389.24 -205.46,0 -410.19,0 -615.29,0 -9.39,129.84 -18.58,259.68 -28.13,389.24 -9.54,129.62 -19.09,259.19 -28.45,388.54 250.9,0 501.82,0 753.06,0z"/>
    <path class="fil1" d="M3455.41 3253.24c-12.14,-117.52 -24.8,-235.46 -37.14,-353.01 -12.31,-117.48 -24.62,-235.5 -36.78,-353.23 76.7,0 153.39,0 230.07,0 -95.08,-111.72 -185.52,-221.5 -265.12,-335.13 -76.94,-109.82 -143.68,-223.42 -205.79,-335.59 -57.97,112.18 -121.45,226.2 -194.69,335.59 -76.39,114.08 -163.11,223.42 -254.39,335.13 76.7,0 153.39,0 230.1,0 -8.68,117.73 -17.54,235.71 -26.04,353.23 -8.5,117.49 -17,235.49 -25.68,353.01 195.04,0 390.07,0 585.45,0z"/>
    <path class="fil2" d="M1754.32 5027.9c0,-18.23 -5.36,-32.54 -16.04,-42.9 -10.69,-10.37 -25.46,-15.55 -44.32,-15.55l-111.3 0 0 117.87 111.3 0c18.86,0 33.63,-5.34 44.32,-16.02 10.69,-10.68 16.04,-25.15 16.04,-43.39zm-9.45 -261.24c0,-16.96 -5.18,-30.34 -15.54,-40.08 -10.37,-9.74 -25,-14.61 -43.85,-14.61l-102.82 0 0 109.39 102.82 0c18.85,0 33.48,-4.87 43.85,-14.61 10.37,-9.76 15.54,-23.12 15.54,-40.1zm174.49 271.63c0,30.18 -4.87,57.37 -14.63,81.57 -9.74,24.22 -23.72,44.81 -41.97,61.78 -18.24,16.98 -40.23,30.17 -66.01,39.6 -25.78,9.45 -54.71,14.16 -86.77,14.16l-292.36 0 0 -671.49 278.22 0c32.7,0 62.25,4.4 88.66,13.2 26.39,8.81 48.87,21.38 67.43,37.73 18.54,16.34 32.86,36.15 42.9,59.41 10.06,23.27 15.09,49.36 15.09,78.28 0,30.18 -5.66,56.12 -16.97,77.79 -11.3,21.7 -30.18,41.99 -56.59,60.83 30.18,18.88 51.56,39.61 64.14,62.25 12.59,22.64 18.87,50.94 18.87,84.89zm114.11 197.11l0 -671.49 456.47 0 0 147.14 -291.43 0 0 112.22 248.99 0 0 147.13 -248.99 0 0 117.88 291.43 0 0 147.13 -456.47 0zm947.83 0l-154.68 -275.4 -56.59 65.07 0 210.33 -163.15 0 0 -671.49 163.15 0 0 237.65 194.28 -237.65 201.84 0 -229.19 271.61 236.73 399.89 -192.39 0zm550.77 -524.36l0 524.36 -165.04 0 0 -524.36 -165.05 0 0 -147.14 495.12 0 0 147.14 -165.04 0zm585.66 160.33c0,-32.07 -1.88,-59.89 -5.65,-83.47 -3.77,-23.59 -10.06,-41.34 -18.88,-53.3 -15.7,-19.48 -37.71,-29.23 -66.01,-29.23 -28.28,0 -50.29,9.76 -66.02,29.23 -8.79,11.96 -15.08,29.71 -18.85,53.3 -3.77,23.58 -5.66,51.4 -5.66,83.47l0 46.2c0,42.75 1.89,74.97 5.66,96.67 3.77,21.7 10.06,38.19 18.85,49.52 16.36,20.11 38.37,30.16 66.02,30.16 13.21,0 25.62,-2.66 37.27,-8.01 11.62,-5.34 21.21,-12.72 28.75,-22.15 8.82,-11.32 15.11,-27.82 18.88,-49.52 3.77,-21.7 5.65,-53.92 5.65,-96.67l0 -46.2zm165.05 28.28c0,24.52 -0.16,48.57 -0.47,72.16 -0.32,23.57 -2.51,46.51 -6.61,68.84 -4.08,22.33 -10.84,44 -20.26,65.07 -9.44,21.07 -22.95,41.02 -40.57,59.89 -47.77,50.29 -110.02,75.44 -186.72,75.44 -77.35,0 -140.21,-25.15 -188.62,-75.44 -16.98,-17.62 -30.18,-36.47 -39.62,-56.59 -9.43,-20.13 -16.18,-40.87 -20.26,-62.25 -4.09,-21.38 -6.45,-42.9 -7.07,-64.6 -0.63,-21.69 -0.96,-42.9 -0.96,-63.66l0 -42.43c0,-32.7 1.12,-61.15 3.32,-85.36 2.2,-24.22 5.81,-45.74 10.84,-64.6 5.03,-18.87 11.93,-35.52 20.75,-50 8.8,-14.45 19.8,-28.59 33.01,-42.42 47.78,-50.3 110.02,-75.45 186.72,-75.45 77.35,0 140.22,25.15 188.62,75.45 23.9,24.52 41.2,52.82 51.88,84.88 10.68,32.07 16.02,72.62 16.02,121.67l0 59.41zm444.21 -119.76c0,-19.51 -6.75,-35.68 -20.26,-48.58 -13.53,-12.88 -30.66,-19.33 -51.41,-19.33l-93.37 0 0 135.8 93.37 0c20.75,0 37.88,-6.45 51.41,-19.35 13.51,-12.88 20.26,-29.07 20.26,-48.55zm165.04 0c0,31.43 -5.66,60.35 -16.96,86.74 -11.31,26.41 -27.2,49.21 -47.64,68.4 -20.42,19.17 -44.63,34.1 -72.62,44.79 -27.98,10.69 -58.63,16.02 -91.95,16.02l-100.91 0 0 239.56 -165.04 0 0 -671.49 265.95 0c33.32,0 63.98,5.34 91.95,16.02 27.99,10.71 52.19,25.62 72.62,44.81 20.44,19.17 36.33,41.97 47.64,68.38 11.3,26.41 16.96,55.34 16.96,86.77z"/>
    <polygon class="fil2" points="2338.27,6850.96 2338.27,6215.82 2150.15,6543.64 1941.55,6543.64 1753.41,6215.82 1753.41,6850.96 1427.48,6850.96 1427.48,5524.81 1747.84,5524.81 2045.85,6109.67 2343.85,5524.81 2664.22,5524.81 2664.22,6850.96 "/>
    <polygon class="fil2" points="3007.88,6444.93 3007.88,6158.09 3618.82,6158.09 3618.82,6444.93 "/>
    <path class="fil2" d="M4488.4 6452.07c0,-39.41 -13.23,-72.65 -39.72,-99.74 -26.47,-27.1 -59.43,-40.63 -98.81,-40.63 -38.17,0 -70.81,13.53 -97.91,40.63 -27.1,27.1 -40.65,59.73 -40.65,97.9 0,38.17 13.55,70.81 40.65,97.89 27.1,27.1 59.74,40.65 97.91,40.65 36.93,0 69.25,-13.55 96.96,-40.65 27.71,-27.08 41.57,-59.11 41.57,-96.04zm-12.94 -526.44c0,-35.7 -11.99,-65.87 -36.01,-90.5 -24.02,-24.62 -53.89,-36.96 -89.58,-36.96 -35.72,0 -65.59,12.01 -89.61,36.03 -24.02,24.02 -36.01,53.88 -36.01,89.58 0,35.72 11.99,65.59 36.01,89.58 24.02,24.02 53.89,36.04 89.61,36.04 34.47,0 64.03,-12.02 88.65,-36.04 24.62,-23.99 36.94,-53.25 36.94,-87.73zm168.1 249.38c55.41,44.32 93.89,88.03 115.44,131.13 21.54,43.1 32.33,95.44 32.33,157.01 0,60.34 -10.47,115.15 -31.4,164.4 -20.93,49.26 -50.49,91.12 -88.66,125.61 -38.19,34.48 -84.67,61.26 -139.48,80.35 -54.78,19.09 -115.44,28.64 -181.92,28.64 -66.51,0 -127.14,-9.55 -181.95,-28.64 -54.81,-19.09 -101.28,-45.87 -139.46,-80.35 -38.17,-34.48 -67.73,-76.05 -88.68,-124.69 -20.93,-48.64 -31.4,-103.13 -31.4,-163.47 0,-80.03 20.93,-148.39 62.82,-205.02 11.07,-14.79 22.15,-28.02 33.24,-39.72 11.07,-11.7 28.32,-26.79 51.72,-45.25 -49.27,-43.11 -84.05,-84.67 -104.36,-124.69 -20.32,-40.02 -30.48,-87.73 -30.48,-143.15 0,-55.42 10.79,-106.21 32.33,-152.4 21.53,-46.18 51.4,-86.51 89.58,-121 38.17,-34.47 83.43,-61.26 135.76,-80.35 52.34,-19.09 109.29,-28.63 170.87,-28.63 61.55,0 118.52,9.54 170.84,28.63 52.33,19.09 97.6,45.88 135.76,80.35 38.17,34.48 68.05,74.82 89.59,121 21.55,46.19 32.34,96.97 32.34,152.4 0,55.41 -10.18,103.13 -30.49,143.15 -20.3,40.02 -55.11,81.58 -104.35,124.69z"/>
    <path class="fil1" d="M4853.19 7057.14c-2.98,20.2 -10.41,35.58 -22.29,46.15 -11.89,10.55 -28.53,15.82 -49.93,15.82 -21.4,0 -37.97,-5.28 -49.72,-15.82 -11.74,-10.57 -19.09,-25.94 -22.05,-46.15l32.54 0c2.08,8.62 6.17,15.61 12.25,20.95 6.11,5.34 15.24,8.03 27.43,8.03 12.17,0 21.24,-2.69 27.18,-8.03 5.95,-5.34 9.82,-12.33 11.6,-20.95l32.99 0zm-23.64 320.09l0 -155.6 -96.73 155.6 -45.48 0 0 -226.03 45.48 0 0 153.35 96.73 -153.35 45.48 0 0 226.03 -45.48 0zm-259.88 0l0 -155.6 -96.75 155.6 -45.48 0 0 -226.03 45.48 0 0 153.35 96.75 -153.35 45.46 0 0 226.03 -45.46 0zm-259.9 0l0 -96.29 -90.08 0 0 96.29 -45.46 0 0 -226.03 45.46 0 0 90.06 90.08 0 0 -90.06 45.46 0 0 226.03 -45.46 0zm-250.11 0l0 -20.51c-4.75,4.77 -9.29,8.62 -13.59,11.6 -4.32,2.96 -8.85,5.26 -13.61,6.9 -4.75,1.64 -9.8,2.75 -15.16,3.34 -5.34,0.59 -11.29,0.89 -17.83,0.89 -25.25,0 -44.65,-5.88 -58.18,-17.6 -13.51,-11.74 -20.28,-28.61 -20.28,-50.6 0,-20.52 6.9,-36.57 20.73,-48.15 13.82,-11.58 32.78,-17.4 56.84,-17.4l60.62 0 0 -16.49c0,-14.85 -4.01,-25.54 -12.04,-32.09 -8.01,-6.54 -20.95,-9.82 -38.78,-9.82 -12.48,0 -22.58,1.95 -30.31,5.8 -3.26,1.49 -6.31,3.49 -9.13,6.03 -2.83,2.53 -5.88,5.88 -9.13,10.04l-29.89 -28.1c6.25,-6.83 11.31,-11.88 15.16,-15.15 3.87,-3.28 8.62,-6.11 14.28,-8.48 12.17,-5.95 28.98,-8.92 50.37,-8.92 63.02,0 94.51,25.86 94.51,77.58l0 151.12 -44.57 0zm-0.45 -99.42l-53.49 0c-27.04,0 -40.57,10.71 -40.57,32.11 0,11 3.57,19.09 10.7,24.29 7.13,5.21 18.42,7.8 33.87,7.8 17.83,0 30.54,-3.56 38.11,-10.71 7.58,-7.12 11.37,-19.01 11.37,-35.66l0 -17.83zm-238.95 99.42l0 -186.34 -90.06 0 0 186.34 -45.46 0 0 -226.03 180.99 0 0 226.03 -45.48 0zm-253.66 0l0 -144.89 -52.15 103.43 -28.54 0 -53.06 -103.43 0 144.89 -45.46 0 0 -226.03 45.03 0 67.77 134.65 67.31 -134.65 44.58 0 0 226.03 -45.48 0zm-241.18 -114.12c0,11.29 -0.45,21.4 -1.34,30.32 -0.9,8.91 -2.37,16.92 -4.45,24.07 -2.09,7.13 -4.83,13.59 -8.25,19.39 -3.41,5.79 -7.5,11.23 -12.27,16.27 -17.22,17.83 -39.82,26.75 -67.75,26.75 -27.65,0 -50.09,-8.92 -67.33,-26.75 -9.51,-10.11 -16.33,-21.91 -20.5,-35.44 -4.16,-13.53 -6.24,-31.44 -6.24,-53.72 0,-22 2.08,-39.75 6.24,-53.28 4.17,-13.51 11,-25.33 20.5,-35.44 17.24,-17.83 39.68,-26.75 67.33,-26.75 27.93,0 50.53,8.92 67.75,26.75 9.53,9.82 16.28,21.48 20.28,35.01 4.03,13.51 6.03,31.12 6.03,52.82zm-45.48 1.79c0,-14.28 -0.88,-26.39 -2.66,-36.35 -1.79,-9.96 -5.58,-18.2 -11.53,-24.74 -4.14,-4.45 -9.05,-8 -14.63,-10.7 -5.64,-2.67 -12.25,-4.01 -19.98,-4.01 -7.66,0 -14.34,1.34 -19.99,4.01 -5.58,2.69 -10.47,6.4 -14.63,11.15 -5.66,6.83 -9.29,15.46 -11.07,25.86 -1.79,10.41 -2.66,22.28 -2.66,35.66 0,15.16 1.18,27.35 3.55,36.56 2.39,9.21 6.03,16.79 11.07,22.74 8.03,9.51 19.24,14.26 33.73,14.26 7.73,0 14.41,-1.34 20.2,-4.01 5.74,-2.66 10.7,-6.4 14.87,-11.14 5.36,-6.55 8.91,-14.72 10.86,-24.51 1.93,-9.82 2.88,-21.4 2.88,-34.77zm-232.26 112.34l-64.63 -100.3 -32.54 37 0 63.31 -45.48 0 0 -226.03 45.48 0 0 107.45 90.05 -107.45 55.7 0 -82.46 92.74 89.62 133.29 -55.73 0zm-364.66 0l0 -20.51c-4.75,4.77 -9.29,8.62 -13.61,11.6 -4.3,2.96 -8.83,5.26 -13.59,6.9 -4.75,1.64 -9.82,2.75 -15.16,3.34 -5.36,0.59 -11.29,0.89 -17.83,0.89 -25.27,0 -44.65,-5.88 -58.18,-17.6 -13.53,-11.74 -20.28,-28.61 -20.28,-50.6 0,-20.52 6.91,-36.57 20.73,-48.15 13.81,-11.58 32.76,-17.4 56.83,-17.4l60.63 0 0 -16.49c0,-14.85 -4.01,-25.54 -12.04,-32.09 -8.03,-6.54 -20.95,-9.82 -38.77,-9.82 -12.49,0 -22.61,1.95 -30.32,5.8 -3.26,1.49 -6.33,3.49 -9.13,6.03 -2.83,2.53 -5.88,5.88 -9.15,10.04l-29.87 -28.1c6.25,-6.83 11.29,-11.88 15.17,-15.15 3.86,-3.28 8.62,-6.11 14.25,-8.48 12.2,-5.95 28.98,-8.92 50.39,-8.92 63.02,0 94.51,25.86 94.51,77.58l0 151.12 -44.57 0zm-0.45 -99.42l-53.49 0c-27.06,0 -40.57,10.71 -40.57,32.11 0,11 3.55,19.09 10.7,24.29 7.13,5.21 18.43,7.8 33.87,7.8 17.83,0 30.54,-3.56 38.11,-10.71 7.58,-7.12 11.37,-19.01 11.37,-35.66l0 -17.83zm-238.95 99.42l0 -186.34 -90.06 0 0 186.34 -45.48 0 0 -226.03 181.01 0 0 226.03 -45.48 0zm-253.21 0l0 -186.34 -90.05 0 0 186.34 -45.48 0 0 -226.03 180.98 0 0 226.03 -45.46 0zm-274.63 45.03c-5.64,15.46 -13.45,26.74 -23.39,33.87 -9.98,7.14 -23.11,10.7 -39.47,10.7l-18.28 0 0 -41 11.6 0c9.21,0 16.12,-1.57 20.72,-4.69 4.61,-3.12 8.56,-9.43 11.81,-18.95l12.49 -35.66 -79.35 -215.33 48.58 0 53.94 159.6 52.61 -159.6 48.6 0 -99.87 271.06zm-132.84 -157.36c0,24.66 -1.93,44.36 -5.79,59.07 -3.87,14.71 -10.26,26.53 -19.19,35.44 -13.67,13.67 -32.38,20.5 -56.16,20.5 -13.07,0 -23.86,-1.93 -32.32,-5.8 -8.46,-3.86 -17.02,-10.55 -25.64,-20.06l0 114.57 -45.46 0 0 -317.41 44.57 0 0 23.65c4.46,-4.76 8.78,-8.78 12.92,-12.04 4.16,-3.27 8.48,-5.95 12.94,-8.03 4.46,-2.08 9.29,-3.63 14.5,-4.67 5.2,-1.04 11.2,-1.58 18.04,-1.58 20.2,0 36.94,4.84 50.16,14.5 13.23,9.66 22.07,24.29 26.52,43.9 1.79,8.03 3.04,16.36 3.79,24.98 0.75,8.62 1.12,19.62 1.12,32.99zm-45.48 -0.9c0,-27.04 -3.63,-46.29 -10.84,-57.74 -7.28,-11.42 -19.33,-17.16 -36.19,-17.16 -18.36,0 -31.06,7.29 -38.19,21.86 -2.9,5.93 -5.05,13.29 -6.38,22.05 -1.34,8.78 -2.03,19.7 -2.03,32.78 0,26.15 3.65,44.94 10.86,56.39 7.28,11.44 19.33,17.16 36.19,17.16 16.87,0 28.82,-5.8 35.96,-17.38 7.06,-11.6 10.62,-30.91 10.62,-57.96zm-281.73 -73.1l0 186.34 -45.48 0 0 -226.03 146.66 0 0 39.69 -101.18 0z"/>
   </g>
  </g>
 </g>
</svg>
