<?xml version="1.0" encoding="UTF-8"?>
<!DOCTYPE svg PUBLIC "-//W3C//DTD SVG 1.1//EN" "http://www.w3.org/Graphics/SVG/1.1/DTD/svg11.dtd">
<!-- Creator: CorelDRAW X8 -->
<svg xmlns="http://www.w3.org/2000/svg" xml:space="preserve" width="35mm" height="23.5mm" version="1.1" style="shape-rendering:geometricPrecision; text-rendering:geometricPrecision; image-rendering:optimizeQuality; fill-rule:evenodd; clip-rule:evenodd"
viewBox="0 0 3500 2350"
 xmlns:xlink="http://www.w3.org/1999/xlink"
 xmlns:xodm="http://www.corel.com/coreldraw/odm/2003">
 <defs>
  <style type="text/css">
   <![CDATA[
    .fil0 {fill:#E7A748}
   ]]>
  </style>
 </defs>
 <g id="Слой_x0020_1">
  <metadata id="CorelCorpID_0Corel-Layer"/>
  <path class="fil0" d="M1111 9c-75,194 -153,390 -236,583 -83,195 -171,389 -262,582 -92,194 -188,388 -287,581 -101,195 -207,388 -313,582 125,0 251,0 377,0 60,-194 120,-388 180,-581 60,-195 120,-389 180,-582 61,-194 121,-388 181,-582 60,-194 121,-389 180,-583z"/>
  <path class="fil0" d="M2344 9c80,194 162,389 248,583 87,194 179,388 274,582 96,194 196,389 299,582 105,194 214,387 326,581 -126,0 -252,0 -378,0 -65,-194 -128,-387 -192,-581 -64,-194 -128,-389 -192,-582 -64,-194 -128,-388 -192,-582 -64,-194 -128,-389 -193,-583z"/>
  <path class="fil0" d="M2154 2337c-13,-130 -27,-260 -41,-389 -13,-130 -27,-260 -40,-391 -206,0 -411,0 -617,0 -9,131 -19,261 -28,391 -10,129 -19,259 -29,389 252,0 503,0 755,0z"/>
  <path class="fil0" d="M2055 1389c-12,-117 -25,-236 -37,-353 -13,-118 -25,-236 -37,-354 77,0 154,0 230,0 -95,-112 -185,-222 -265,-336 -77,-110 -144,-224 -206,-337 -59,113 -122,227 -196,337 -76,114 -163,224 -255,336 77,0 154,0 231,0 -9,118 -18,236 -26,354 -9,117 -17,236 -26,353 196,0 391,0 587,0z"/>
 </g>
</svg>
